<svg width="129" height="30" viewBox="0 0 129 30" fill="none" xmlns="http://www.w3.org/2000/svg">
<path d="M0 13.2121C2.35901 13.2121 4.6147 13.2149 6.8704 13.2102C7.37083 13.2093 7.34808 13.5438 7.34713 13.8879C7.34524 15.9189 7.34618 17.95 7.34618 19.982C7.34618 23.304 7.34618 26.6269 7.34618 30H0V13.2121Z" fill="black"/>
<path d="M0.0443766 5.18147V0H30.0679C30.0546 0.303288 30.03 0.606575 30.03 0.910812C30.0272 5.83828 30.0281 10.7658 30.0281 15.6932V16.6306C27.762 16.6306 25.6058 16.6097 23.4496 16.6438C22.8383 16.6543 22.6762 16.4657 22.6838 15.8648C22.716 13.2243 22.6829 10.5819 22.7113 7.94044C22.7179 7.33861 22.536 7.15284 21.9303 7.15948C19.0861 7.18791 16.2409 7.17085 13.3966 7.17369C13.2307 7.17369 13.0649 7.20023 12.7493 7.22772C12.972 7.49594 13.0952 7.67127 13.244 7.82007C18.5411 13.1181 23.8297 18.4238 29.1524 23.6953C29.7978 24.3331 30.1087 24.953 30.0499 25.8751C29.9646 27.2314 30.0281 28.5971 30.0281 29.998C28.3468 29.998 26.7744 30.0074 25.203 29.9856C25.0096 29.9837 24.7737 29.8624 24.6324 29.7212C19.5818 24.6791 14.5443 19.6255 9.49556 14.5815C6.35275 11.4415 3.19572 8.31481 0.0443766 5.18147Z" fill="black"/>
<path d="M46.2053 10.4511V16.0268H51.4616C53.2216 16.0268 54.2045 15.1596 54.2045 13.3532C54.2045 11.16 52.7875 10.4511 51.4616 10.4511H46.2053ZM42 6.79365H51.4161C55.4157 6.79365 58.4325 8.41718 58.4325 12.9191C58.4325 15.9814 56.7871 17.8333 54.5931 18.7242L58.7291 23.9351H53.633L50.4788 19.6388H46.2053V23.9351H42V6.79365Z" fill="black"/>
<path d="M61.127 6.79413H75.3416V10.4516H65.3322V13.6731H74.3825V17.0557H65.3322V20.2781H75.3416V23.9355H61.127V6.79413Z" fill="black"/>
<path d="M78.8574 6.79462H83.0627V23.936H78.8574V6.79462Z" fill="black"/>
<path d="M86.6035 6.79413H90.8088L98.8762 17.4897V6.79413H103.081V23.9355H98.8762L90.8088 13.3082V23.9355H86.6035V6.79413Z" fill="black"/>
<path d="M120.537 15.365C120.537 11.8914 118.662 9.94848 115.348 9.94848C112.058 9.94848 110.183 11.9597 110.183 15.365C110.183 18.7704 112.058 20.7588 115.348 20.7588C118.662 20.7588 120.537 18.7704 120.537 15.365ZM115.348 6.31473C121.131 6.31473 124.765 9.42247 124.765 15.365C124.765 21.3075 121.131 24.4153 115.348 24.4153C109.589 24.4153 105.955 21.3075 105.955 15.365C105.955 9.40067 109.589 6.31473 115.348 6.31473Z" fill="black"/>
<path d="M125.99 4.83124C126.111 4.77567 126.171 4.66694 126.171 4.50426C126.171 4.32788 126.113 4.20949 125.996 4.14908C125.93 4.11445 125.831 4.09754 125.7 4.09754H124.994V4.87876H125.682C125.819 4.87876 125.922 4.86265 125.99 4.83124ZM125.621 5.35957H124.994V6.49999H124.4V3.59257H125.826C126.03 3.59659 126.186 3.62156 126.297 3.66747C126.406 3.71337 126.5 3.78183 126.575 3.87042C126.639 3.94452 126.689 4.02586 126.725 4.11526C126.762 4.20466 126.781 4.30694 126.781 4.4213C126.781 4.55902 126.746 4.69513 126.676 4.82802C126.606 4.96171 126.492 5.05594 126.331 5.11151C126.465 5.16548 126.56 5.24199 126.616 5.34105C126.672 5.44011 126.7 5.59152 126.7 5.79528V5.99099C126.7 6.12388 126.705 6.21408 126.716 6.26079C126.732 6.33569 126.768 6.39127 126.826 6.4267V6.49999H126.157C126.139 6.43556 126.126 6.38321 126.118 6.34375C126.103 6.2624 126.094 6.17865 126.092 6.09327L126.088 5.82347C126.086 5.63823 126.052 5.51421 125.988 5.45219C125.922 5.39098 125.8 5.35957 125.621 5.35957Z" fill="black"/>
<path d="M125.613 2.80538C124.378 2.80538 123.372 3.8113 123.372 5.04676C123.372 6.28221 124.378 7.28813 125.613 7.28813C126.849 7.28813 127.855 6.28221 127.855 5.04676C127.855 3.8113 126.849 2.80538 125.613 2.80538ZM125.613 8.09352C123.933 8.09352 122.566 6.72678 122.566 5.04676C122.566 3.36673 123.933 2 125.613 2C127.293 2 128.66 3.36673 128.66 5.04676C128.66 6.72678 127.293 8.09352 125.613 8.09352Z" fill="black"/>
</svg>
